<?xml version="1.0" encoding="utf-8"?>
<!-- Generator: Adobe Illustrator 17.1.0, SVG Export Plug-In . SVG Version: 6.00 Build 0)  -->
<!DOCTYPE svg PUBLIC "-//W3C//DTD SVG 1.1//EN" "http://www.w3.org/Graphics/SVG/1.1/DTD/svg11.dtd">
<svg version="1.1" id="Layer_1" xmlns="http://www.w3.org/2000/svg" xmlns:xlink="http://www.w3.org/1999/xlink" x="0px" y="0px"
	 viewBox="0 0 22 22" enable-background="new 0 0 22 22" xml:space="preserve">
<path fill-rule="evenodd" clip-rule="evenodd" fill="#b99403" d="M16.2,1.9c-1.1,1.1-1.1,2.9,0,4c1.1,1.1,2.9,1.1,4,0l1.6-1.6
	C21.9,4.7,22,5.2,22,5.7c0,3.1-2.5,5.6-5.7,5.6c-0.5,0-1-0.1-1.5-0.2c0,0,0,0,0,0.1l-10,10c-1.1,1.1-2.9,1.1-4,0
	c-1.1-1.1-1.1-2.9,0-4l10-10c0,0,0,0,0.1,0c-0.1-0.5-0.2-0.9-0.2-1.5c0-3.1,2.5-5.6,5.7-5.6c0.5,0,1,0.1,1.4,0.2L16.2,1.9z M3,18.4
	c-0.4,0-0.7,0.3-0.7,0.7c0,0.4,0.3,0.7,0.7,0.7c0.4,0,0.7-0.3,0.7-0.7C3.7,18.7,3.3,18.4,3,18.4z"/>
</svg>
