<?xml version="1.0" encoding="utf-8"?>
<!-- Generator: Adobe Illustrator 17.1.0, SVG Export Plug-In . SVG Version: 6.00 Build 0)  -->
<!DOCTYPE svg PUBLIC "-//W3C//DTD SVG 1.1//EN" "http://www.w3.org/Graphics/SVG/1.1/DTD/svg11.dtd">
<svg version="1.1" id="Layer_1" xmlns="http://www.w3.org/2000/svg" xmlns:xlink="http://www.w3.org/1999/xlink" x="0px" y="0px"
	 viewBox="0 0 158 133" enable-background="new 0 0 158 133" xml:space="preserve">
<path fill-rule="evenodd" clip-rule="evenodd" fill="#c28401" d="M157.7,15.3l-14.8,15.3c0,0,0-1.4,0,2.6c0,2.8-0.4,5.5-1.1,8.1
	c-0.3,21.1-6.8,49-33.4,71.1C56.1,155.7,0,117.4,0,117.4c44.3,0,44.3-15.3,44.3-15.3c-9.9,0-29.6-20.4-29.6-20.4
	c4.9,5.1,14.8,0,14.8,0C4.9,66.4,4.9,51,4.9,51c4.9,5.1,14.8,0,14.8,0C-4.9,30.6,9.9,5.1,9.9,5.1c4.9,25.5,69,35.7,69,35.7l0.8-0.4
	c-0.5-2.3-0.8-7.3-0.8-9.8c0-18.3,14.3-30.6,32-30.6c9.7,0,18.4,4.6,24.2,11.7l2.9-1.5L152.8,0l-9.9,20.4L157.7,15.3z"/>
</svg>
