<?xml version="1.0" encoding="utf-8"?>
<!-- Generator: Adobe Illustrator 17.1.0, SVG Export Plug-In . SVG Version: 6.00 Build 0)  -->
<!DOCTYPE svg PUBLIC "-//W3C//DTD SVG 1.1//EN" "http://www.w3.org/Graphics/SVG/1.1/DTD/svg11.dtd">
<svg version="1.1" id="Layer_1" xmlns="http://www.w3.org/2000/svg" xmlns:xlink="http://www.w3.org/1999/xlink" x="0px" y="0px"
	 viewBox="0 0 89 61" enable-background="new 0 0 89 61" xml:space="preserve">
<path fill-rule="evenodd" clip-rule="evenodd" fill="#f5c506" d="M66.7,61H19.5C8.8,61,0.1,52.3,0.1,41.6C0.1,32.9,6,25.5,14,23.2
	c0-0.3-0.1-0.6-0.1-0.9c0-7.6,6.2-13.8,13.9-13.8c1.5,0,3,0.3,4.4,0.8c4-5.5,10.5-9.1,17.8-9.1c10.5,0,19.3,7.4,21.6,17.2
	c9.9,2.2,17.2,11,17.2,21.5C88.9,51.1,78.9,61,66.7,61z M50,38.9V22.3H38.9v16.6h-8.5l14,14l14-14H50z"/>
</svg>
