<?xml version="1.0" encoding="utf-8"?>
<!-- Generator: Adobe Illustrator 17.1.0, SVG Export Plug-In . SVG Version: 6.00 Build 0)  -->
<!DOCTYPE svg PUBLIC "-//W3C//DTD SVG 1.1//EN" "http://www.w3.org/Graphics/SVG/1.1/DTD/svg11.dtd">
<svg version="1.1" id="Layer_1" xmlns="http://www.w3.org/2000/svg" xmlns:xlink="http://www.w3.org/1999/xlink" x="0px" y="0px"
	 viewBox="0 0 15 15" enable-background="new 0 0 15 15" xml:space="preserve">
<path fill-rule="evenodd" clip-rule="evenodd" fill="#f5c506" d="M9.4,8V7H15v1H9.4z M9.2,5.2l5.1-2.4l0.4,0.9L9.6,6L9.2,5.2z M8.8,3
	l3.5-3l0.5,0.6l-3.5,3L8.8,3z M3.3,10.3V7.8V7.2V4.6c1.4-1.3,3.2-2,4.4-3.5v6v0.6v6C6.5,12.3,4.7,11.7,3.3,10.3z M0,4.7h2.9v5.6H0
	V4.7z M12.8,14.4L12.2,15l-3.5-3l0.5-0.6L12.8,14.4z M9.4,9l5.1,2.4l-0.4,0.9L9,9.9L9.4,9z"/>
</svg>
