<?xml version="1.0" encoding="utf-8"?>
<!-- Generator: Adobe Illustrator 17.1.0, SVG Export Plug-In . SVG Version: 6.00 Build 0)  -->
<!DOCTYPE svg PUBLIC "-//W3C//DTD SVG 1.1//EN" "http://www.w3.org/Graphics/SVG/1.1/DTD/svg11.dtd">
<svg version="1.1" id="Layer_1" xmlns="http://www.w3.org/2000/svg" xmlns:xlink="http://www.w3.org/1999/xlink" x="0px" y="0px"
	 viewBox="0 0 28 22" enable-background="new 0 0 28 22" xml:space="preserve">
<path fill-rule="evenodd" clip-rule="evenodd" fill="#b99403" d="M27.7,21.1L18,11l7.1-7.5l2.5-2.7C27.9,1.2,28,1.5,28,1.8v18.3
	C28,20.5,27.9,20.8,27.7,21.1z M24.6,2.9l-3.3,3.4l-6.2,6.5L14,14L3.4,2.9L1.7,1.1L0.9,0.3C1.1,0.1,1.4,0,1.7,0h24.5
	c0.3,0,0.6,0.1,0.8,0.3l-0.9,0.9L24.6,2.9z M1.1,1.8L9.9,11L0.3,21.1C0.1,20.8,0,20.5,0,20.2V1.8c0-0.3,0.1-0.6,0.3-0.9L1.1,1.8
	L1.1,1.8z M10.5,11.6l0.4,0.4l0.1,0.1l1.2,1.3l1.8,1.8l0.1-0.1l0,0l1.6-1.7l1.7-1.8l9.6,10.1c-0.2,0.1-0.5,0.2-0.8,0.2H1.7
	c-0.3,0-0.6-0.1-0.9-0.3L10.5,11.6z"/>
</svg>
