<?xml version="1.0" encoding="utf-8"?>
<!-- Generator: Adobe Illustrator 17.1.0, SVG Export Plug-In . SVG Version: 6.00 Build 0)  -->
<!DOCTYPE svg PUBLIC "-//W3C//DTD SVG 1.1//EN" "http://www.w3.org/Graphics/SVG/1.1/DTD/svg11.dtd">
<svg version="1.1" id="Layer_1" xmlns="http://www.w3.org/2000/svg" xmlns:xlink="http://www.w3.org/1999/xlink" x="0px" y="0px"
	 viewBox="0 0 78 78" enable-background="new 0 0 78 78" xml:space="preserve">
<path fill-rule="evenodd" clip-rule="evenodd" d="M0.1,51.8l12.2-12.7L0.1,26.4h10.4l12.2,12.7L10.5,51.8H0.1z"/>
<path fill-rule="evenodd" clip-rule="evenodd" d="M15.9,51.8l12.2-12.7L15.9,26.4h10.4l12.2,12.7L26.2,51.8H15.9z"/>
<path fill-rule="evenodd" clip-rule="evenodd" d="M77.8,51.8L65.5,39.1l12.2-12.7H67.4L55.2,39.1l12.2,12.7H77.8z"/>
<path fill-rule="evenodd" clip-rule="evenodd" d="M62,51.8L49.8,39.1L62,26.4H51.6L39.4,39.1l12.2,12.7H62z"/>
<path fill-rule="evenodd" clip-rule="evenodd" d="M26.3,0.1l12.6,12.3L51.6,0.1v10.4L38.9,22.8L26.3,10.5V0.1z"/>
<path fill-rule="evenodd" clip-rule="evenodd" d="M26.3,15.9l12.6,12.3l12.6-12.3v10.4L38.9,38.7L26.3,26.4V15.9z"/>
<path fill-rule="evenodd" clip-rule="evenodd" d="M26.3,78.2l12.6-12.3l12.6,12.3V67.7L38.9,55.4L26.3,67.7V78.2z"/>
<path fill-rule="evenodd" clip-rule="evenodd" d="M26.3,62.3L38.9,50l12.6,12.3V51.9L38.9,39.6L26.3,51.9V62.3z"/>
</svg>
